%TF.GenerationSoftware,KiCad,Pcbnew,8.0.4*%
%TF.CreationDate,2025-01-13T09:01:13+07:00*%
%TF.ProjectId,BMS-switch-board,424d532d-7377-4697-9463-682d626f6172,rev?*%
%TF.SameCoordinates,Original*%
%TF.FileFunction,Copper,L1,Top*%
%TF.FilePolarity,Positive*%
%FSLAX46Y46*%
G04 Gerber Fmt 4.6, Leading zero omitted, Abs format (unit mm)*
G04 Created by KiCad (PCBNEW 8.0.4) date 2025-01-13 09:01:13*
%MOMM*%
%LPD*%
G01*
G04 APERTURE LIST*
G04 Aperture macros list*
%AMRoundRect*
0 Rectangle with rounded corners*
0 $1 Rounding radius*
0 $2 $3 $4 $5 $6 $7 $8 $9 X,Y pos of 4 corners*
0 Add a 4 corners polygon primitive as box body*
4,1,4,$2,$3,$4,$5,$6,$7,$8,$9,$2,$3,0*
0 Add four circle primitives for the rounded corners*
1,1,$1+$1,$2,$3*
1,1,$1+$1,$4,$5*
1,1,$1+$1,$6,$7*
1,1,$1+$1,$8,$9*
0 Add four rect primitives between the rounded corners*
20,1,$1+$1,$2,$3,$4,$5,0*
20,1,$1+$1,$4,$5,$6,$7,0*
20,1,$1+$1,$6,$7,$8,$9,0*
20,1,$1+$1,$8,$9,$2,$3,0*%
G04 Aperture macros list end*
%TA.AperFunction,SMDPad,CuDef*%
%ADD10RoundRect,0.100000X-0.637500X-0.100000X0.637500X-0.100000X0.637500X0.100000X-0.637500X0.100000X0*%
%TD*%
%TA.AperFunction,ComponentPad*%
%ADD11R,1.700000X1.700000*%
%TD*%
%TA.AperFunction,ComponentPad*%
%ADD12O,1.700000X1.700000*%
%TD*%
%TA.AperFunction,SMDPad,CuDef*%
%ADD13RoundRect,0.075000X-0.662500X-0.075000X0.662500X-0.075000X0.662500X0.075000X-0.662500X0.075000X0*%
%TD*%
G04 APERTURE END LIST*
D10*
%TO.P,U1,1,VDDCP*%
%TO.N,/BAT_SWITCH/VDDCP*%
X124121800Y-83119800D03*
%TO.P,U1,2,BAT*%
%TO.N,/BAT_SWITCH/BAT*%
X124121800Y-83769800D03*
%TO.P,U1,3,NC*%
%TO.N,unconnected-(U1-NC-Pad3)*%
X124121800Y-84419800D03*
%TO.P,U1,4,CHG_EN*%
%TO.N,/BAT_SWITCH/CHG_EN*%
X124121800Y-85069800D03*
%TO.P,U1,5,CP_EN*%
%TO.N,/BAT_SWITCH/CP_EN*%
X124121800Y-85719800D03*
%TO.P,U1,6,DSG_EN*%
%TO.N,/BAT_SWITCH/DSG_EN*%
X124121800Y-86369800D03*
%TO.P,U1,7,PMON_EN*%
%TO.N,/BAT_SWITCH/PMON_EN*%
X124121800Y-87019800D03*
%TO.P,U1,8,PCHG_EN*%
%TO.N,/BAT_SWITCH/PCHG_EN*%
X124121800Y-87669800D03*
%TO.P,U1,9,VSS*%
%TO.N,GND*%
X129846800Y-87669800D03*
%TO.P,U1,10,PACKDIV*%
%TO.N,/BAT_SWITCH/PACKDIV*%
X129846800Y-87019800D03*
%TO.P,U1,11,PACK*%
%TO.N,/BAT_SWITCH/PACK*%
X129846800Y-86369800D03*
%TO.P,U1,12,DSG*%
%TO.N,/BAT_SWITCH/DSG*%
X129846800Y-85719800D03*
%TO.P,U1,13,NC*%
%TO.N,unconnected-(U1-NC-Pad13)*%
X129846800Y-85069800D03*
%TO.P,U1,14,PCHG*%
%TO.N,/BAT_SWITCH/PCHG*%
X129846800Y-84419800D03*
%TO.P,U1,15,NC*%
%TO.N,unconnected-(U1-NC-Pad15)*%
X129846800Y-83769800D03*
%TO.P,U1,16,CHG*%
%TO.N,/BAT_SWITCH/CHG*%
X129846800Y-83119800D03*
%TD*%
D11*
%TO.P,J2,1,Pin_1*%
%TO.N,/BAT_SWITCH/CHG*%
X135686800Y-76504800D03*
D12*
%TO.P,J2,2,Pin_2*%
%TO.N,unconnected-(J2-Pin_2-Pad2)*%
X135686800Y-79044800D03*
%TO.P,J2,3,Pin_3*%
%TO.N,/BAT_SWITCH/PCHG*%
X135686800Y-81584800D03*
%TO.P,J2,4,Pin_4*%
%TO.N,unconnected-(J2-Pin_4-Pad4)*%
X135686800Y-84124800D03*
%TO.P,J2,5,Pin_5*%
%TO.N,/BAT_SWITCH/DSG*%
X135686800Y-86664800D03*
%TO.P,J2,6,Pin_6*%
%TO.N,/BAT_SWITCH/PACK*%
X135686800Y-89204800D03*
%TO.P,J2,7,Pin_7*%
%TO.N,/BAT_SWITCH/PACKDIV*%
X135686800Y-91744800D03*
%TO.P,J2,8,Pin_8*%
%TO.N,GND*%
X135686800Y-94284800D03*
%TD*%
D11*
%TO.P,J1,1,Pin_1*%
%TO.N,/BAT_SWITCH/VDDCP*%
X117906800Y-76504800D03*
D12*
%TO.P,J1,2,Pin_2*%
%TO.N,/BAT_SWITCH/BAT*%
X117906800Y-79044800D03*
%TO.P,J1,3,Pin_3*%
%TO.N,unconnected-(J1-Pin_3-Pad3)*%
X117906800Y-81584800D03*
%TO.P,J1,4,Pin_4*%
%TO.N,/BAT_SWITCH/CHG_EN*%
X117906800Y-84124800D03*
%TO.P,J1,5,Pin_5*%
%TO.N,/BAT_SWITCH/CP_EN*%
X117906800Y-86664800D03*
%TO.P,J1,6,Pin_6*%
%TO.N,/BAT_SWITCH/DSG_EN*%
X117906800Y-89204800D03*
%TO.P,J1,7,Pin_7*%
%TO.N,/BAT_SWITCH/PMON_EN*%
X117906800Y-91744800D03*
%TO.P,J1,8,Pin_8*%
%TO.N,/BAT_SWITCH/PCHG_EN*%
X117906800Y-94284800D03*
%TD*%
D11*
%TO.P,J4,1,Pin_1*%
%TO.N,/SMBA*%
X135686800Y-99364800D03*
D12*
%TO.P,J4,2,Pin_2*%
%TO.N,/ADREN*%
X135686800Y-101904800D03*
%TO.P,J4,3,Pin_3*%
%TO.N,/GPIO_B*%
X135686800Y-104444800D03*
%TO.P,J4,4,Pin_4*%
%TO.N,/RBI*%
X135686800Y-106984800D03*
%TO.P,J4,5,Pin_5*%
%TO.N,/VCC*%
X135686800Y-109524800D03*
%TO.P,J4,6,Pin_6*%
%TO.N,GND*%
X135686800Y-112064800D03*
%TO.P,J4,7,Pin_7*%
%TO.N,/~{MRST}*%
X135686800Y-114604800D03*
%TO.P,J4,8,Pin_8*%
%TO.N,GND*%
X135686800Y-117144800D03*
%TO.P,J4,9,Pin_9*%
X135686800Y-119684800D03*
%TO.P,J4,10,Pin_10*%
%TO.N,/GPIO_A*%
X135686800Y-122224800D03*
%TO.P,J4,11,Pin_11*%
%TO.N,/LED5*%
X135686800Y-124764800D03*
%TO.P,J4,12,Pin_12*%
%TO.N,/LED4*%
X135686800Y-127304800D03*
%TO.P,J4,13,Pin_13*%
%TO.N,/LED3*%
X135686800Y-129844800D03*
%TO.P,J4,14,Pin_14*%
%TO.N,/LED2*%
X135686800Y-132384800D03*
%TO.P,J4,15,Pin_15*%
%TO.N,/LED1*%
X135686800Y-134924800D03*
%TD*%
D11*
%TO.P,J3,1,Pin_1*%
%TO.N,/COM*%
X117906800Y-99364800D03*
D12*
%TO.P,J3,2,Pin_2*%
%TO.N,/ALERT*%
X117906800Y-101904800D03*
%TO.P,J3,3,Pin_3*%
%TO.N,/SDA*%
X117906800Y-104444800D03*
%TO.P,J3,4,Pin_4*%
%TO.N,/SCL*%
X117906800Y-106984800D03*
%TO.P,J3,5,Pin_5*%
%TO.N,/~{PRECHG}*%
X117906800Y-109524800D03*
%TO.P,J3,6,Pin_6*%
%TO.N,/VAUX*%
X117906800Y-112064800D03*
%TO.P,J3,7,Pin_7*%
%TO.N,/BAT*%
X117906800Y-114604800D03*
%TO.P,J3,8,Pin_8*%
%TO.N,/~{PRES}*%
X117906800Y-117144800D03*
%TO.P,J3,9,Pin_9*%
%TO.N,/~{KEYIN}*%
X117906800Y-119684800D03*
%TO.P,J3,10,Pin_10*%
%TO.N,/SAFE*%
X117906800Y-122224800D03*
%TO.P,J3,11,Pin_11*%
%TO.N,/SMBD*%
X117906800Y-124764800D03*
%TO.P,J3,12,Pin_12*%
%TO.N,/VEN*%
X117906800Y-127304800D03*
%TO.P,J3,13,Pin_13*%
%TO.N,/SMBC*%
X117906800Y-129844800D03*
%TO.P,J3,14,Pin_14*%
%TO.N,/~{DISP}*%
X117906800Y-132384800D03*
%TO.P,J3,15,Pin_15*%
%TO.N,/PWRM*%
X117906800Y-134924800D03*
%TD*%
D13*
%TO.P,U2,1,COM*%
%TO.N,/COM*%
X123934300Y-113707300D03*
%TO.P,U2,2,ALERT*%
%TO.N,/ALERT*%
X123934300Y-114207300D03*
%TO.P,U2,3,SDA*%
%TO.N,/SDA*%
X123934300Y-114707300D03*
%TO.P,U2,4,SCL*%
%TO.N,/SCL*%
X123934300Y-115207300D03*
%TO.P,U2,5,~{PRECHG}*%
%TO.N,/~{PRECHG}*%
X123934300Y-115707300D03*
%TO.P,U2,6,VAUX*%
%TO.N,/VAUX*%
X123934300Y-116207300D03*
%TO.P,U2,7,BAT*%
%TO.N,/BAT*%
X123934300Y-116707300D03*
%TO.P,U2,8,~{PRES}*%
%TO.N,/~{PRES}*%
X123934300Y-117207300D03*
%TO.P,U2,9,~{KEYIN}*%
%TO.N,/~{KEYIN}*%
X123934300Y-117707300D03*
%TO.P,U2,10,SAFE*%
%TO.N,/SAFE*%
X123934300Y-118207300D03*
%TO.P,U2,11,SMBD*%
%TO.N,/SMBD*%
X123934300Y-118707300D03*
%TO.P,U2,12,VEN*%
%TO.N,/VEN*%
X123934300Y-119207300D03*
%TO.P,U2,13,SMBC*%
%TO.N,/SMBC*%
X123934300Y-119707300D03*
%TO.P,U2,14,~{DISP}*%
%TO.N,/~{DISP}*%
X123934300Y-120207300D03*
%TO.P,U2,15,PWRM*%
%TO.N,/PWRM*%
X123934300Y-120707300D03*
%TO.P,U2,16,LED1*%
%TO.N,/LED1*%
X129659300Y-120707300D03*
%TO.P,U2,17,LED2*%
%TO.N,/LED2*%
X129659300Y-120207300D03*
%TO.P,U2,18,LED3*%
%TO.N,/LED3*%
X129659300Y-119707300D03*
%TO.P,U2,19,LED4*%
%TO.N,/LED4*%
X129659300Y-119207300D03*
%TO.P,U2,20,LED5*%
%TO.N,/LED5*%
X129659300Y-118707300D03*
%TO.P,U2,21,GPIO_A*%
%TO.N,/GPIO_A*%
X129659300Y-118207300D03*
%TO.P,U2,22,VSS*%
%TO.N,GND*%
X129659300Y-117707300D03*
%TO.P,U2,23,VSS*%
X129659300Y-117207300D03*
%TO.P,U2,24,~{MRST}*%
%TO.N,/~{MRST}*%
X129659300Y-116707300D03*
%TO.P,U2,25,VSS*%
%TO.N,GND*%
X129659300Y-116207300D03*
%TO.P,U2,26,VCC*%
%TO.N,/VCC*%
X129659300Y-115707300D03*
%TO.P,U2,27,RBI*%
%TO.N,/RBI*%
X129659300Y-115207300D03*
%TO.P,U2,28,GPIO_B*%
%TO.N,/GPIO_B*%
X129659300Y-114707300D03*
%TO.P,U2,29,ADREN*%
%TO.N,/ADREN*%
X129659300Y-114207300D03*
%TO.P,U2,30,SMBA*%
%TO.N,/SMBA*%
X129659300Y-113707300D03*
%TD*%
M02*
