%TF.GenerationSoftware,KiCad,Pcbnew,8.0.4*%
%TF.CreationDate,2025-01-13T09:01:13+07:00*%
%TF.ProjectId,BMS-switch-board,424d532d-7377-4697-9463-682d626f6172,rev?*%
%TF.SameCoordinates,Original*%
%TF.FileFunction,Soldermask,Top*%
%TF.FilePolarity,Negative*%
%FSLAX46Y46*%
G04 Gerber Fmt 4.6, Leading zero omitted, Abs format (unit mm)*
G04 Created by KiCad (PCBNEW 8.0.4) date 2025-01-13 09:01:13*
%MOMM*%
%LPD*%
G01*
G04 APERTURE LIST*
G04 Aperture macros list*
%AMRoundRect*
0 Rectangle with rounded corners*
0 $1 Rounding radius*
0 $2 $3 $4 $5 $6 $7 $8 $9 X,Y pos of 4 corners*
0 Add a 4 corners polygon primitive as box body*
4,1,4,$2,$3,$4,$5,$6,$7,$8,$9,$2,$3,0*
0 Add four circle primitives for the rounded corners*
1,1,$1+$1,$2,$3*
1,1,$1+$1,$4,$5*
1,1,$1+$1,$6,$7*
1,1,$1+$1,$8,$9*
0 Add four rect primitives between the rounded corners*
20,1,$1+$1,$2,$3,$4,$5,0*
20,1,$1+$1,$4,$5,$6,$7,0*
20,1,$1+$1,$6,$7,$8,$9,0*
20,1,$1+$1,$8,$9,$2,$3,0*%
G04 Aperture macros list end*
%ADD10RoundRect,0.100000X-0.637500X-0.100000X0.637500X-0.100000X0.637500X0.100000X-0.637500X0.100000X0*%
%ADD11R,1.700000X1.700000*%
%ADD12O,1.700000X1.700000*%
%ADD13RoundRect,0.075000X-0.662500X-0.075000X0.662500X-0.075000X0.662500X0.075000X-0.662500X0.075000X0*%
G04 APERTURE END LIST*
D10*
%TO.C,U1*%
X124121800Y-83119800D03*
X124121800Y-83769800D03*
X124121800Y-84419800D03*
X124121800Y-85069800D03*
X124121800Y-85719800D03*
X124121800Y-86369800D03*
X124121800Y-87019800D03*
X124121800Y-87669800D03*
X129846800Y-87669800D03*
X129846800Y-87019800D03*
X129846800Y-86369800D03*
X129846800Y-85719800D03*
X129846800Y-85069800D03*
X129846800Y-84419800D03*
X129846800Y-83769800D03*
X129846800Y-83119800D03*
%TD*%
D11*
%TO.C,J2*%
X135686800Y-76504800D03*
D12*
X135686800Y-79044800D03*
X135686800Y-81584800D03*
X135686800Y-84124800D03*
X135686800Y-86664800D03*
X135686800Y-89204800D03*
X135686800Y-91744800D03*
X135686800Y-94284800D03*
%TD*%
D11*
%TO.C,J1*%
X117906800Y-76504800D03*
D12*
X117906800Y-79044800D03*
X117906800Y-81584800D03*
X117906800Y-84124800D03*
X117906800Y-86664800D03*
X117906800Y-89204800D03*
X117906800Y-91744800D03*
X117906800Y-94284800D03*
%TD*%
D11*
%TO.C,J4*%
X135686800Y-99364800D03*
D12*
X135686800Y-101904800D03*
X135686800Y-104444800D03*
X135686800Y-106984800D03*
X135686800Y-109524800D03*
X135686800Y-112064800D03*
X135686800Y-114604800D03*
X135686800Y-117144800D03*
X135686800Y-119684800D03*
X135686800Y-122224800D03*
X135686800Y-124764800D03*
X135686800Y-127304800D03*
X135686800Y-129844800D03*
X135686800Y-132384800D03*
X135686800Y-134924800D03*
%TD*%
D11*
%TO.C,J3*%
X117906800Y-99364800D03*
D12*
X117906800Y-101904800D03*
X117906800Y-104444800D03*
X117906800Y-106984800D03*
X117906800Y-109524800D03*
X117906800Y-112064800D03*
X117906800Y-114604800D03*
X117906800Y-117144800D03*
X117906800Y-119684800D03*
X117906800Y-122224800D03*
X117906800Y-124764800D03*
X117906800Y-127304800D03*
X117906800Y-129844800D03*
X117906800Y-132384800D03*
X117906800Y-134924800D03*
%TD*%
D13*
%TO.C,U2*%
X123934300Y-113707300D03*
X123934300Y-114207300D03*
X123934300Y-114707300D03*
X123934300Y-115207300D03*
X123934300Y-115707300D03*
X123934300Y-116207300D03*
X123934300Y-116707300D03*
X123934300Y-117207300D03*
X123934300Y-117707300D03*
X123934300Y-118207300D03*
X123934300Y-118707300D03*
X123934300Y-119207300D03*
X123934300Y-119707300D03*
X123934300Y-120207300D03*
X123934300Y-120707300D03*
X129659300Y-120707300D03*
X129659300Y-120207300D03*
X129659300Y-119707300D03*
X129659300Y-119207300D03*
X129659300Y-118707300D03*
X129659300Y-118207300D03*
X129659300Y-117707300D03*
X129659300Y-117207300D03*
X129659300Y-116707300D03*
X129659300Y-116207300D03*
X129659300Y-115707300D03*
X129659300Y-115207300D03*
X129659300Y-114707300D03*
X129659300Y-114207300D03*
X129659300Y-113707300D03*
%TD*%
M02*
