M48
; DRILL file {KiCad 8.0.4} date 2025-01-13T09:01:12+0700
; FORMAT={-:-/ absolute / inch / decimal}
; #@! TF.CreationDate,2025-01-13T09:01:12+07:00
; #@! TF.GenerationSoftware,Kicad,Pcbnew,8.0.4
; #@! TF.FileFunction,Plated,1,2,PTH
FMAT,2
INCH
; #@! TA.AperFunction,Plated,PTH,ComponentDrill
T1C0.0394
%
G90
G05
T1
X4.642Y-3.012
X4.642Y-3.112
X4.642Y-3.212
X4.642Y-3.312
X4.642Y-3.412
X4.642Y-3.512
X4.642Y-3.612
X4.642Y-3.712
X4.642Y-3.912
X4.642Y-4.012
X4.642Y-4.112
X4.642Y-4.212
X4.642Y-4.312
X4.642Y-4.412
X4.642Y-4.512
X4.642Y-4.612
X4.642Y-4.712
X4.642Y-4.812
X4.642Y-4.912
X4.642Y-5.012
X4.642Y-5.112
X4.642Y-5.212
X4.642Y-5.312
X5.342Y-3.012
X5.342Y-3.112
X5.342Y-3.212
X5.342Y-3.312
X5.342Y-3.412
X5.342Y-3.512
X5.342Y-3.612
X5.342Y-3.712
X5.342Y-3.912
X5.342Y-4.012
X5.342Y-4.112
X5.342Y-4.212
X5.342Y-4.312
X5.342Y-4.412
X5.342Y-4.512
X5.342Y-4.612
X5.342Y-4.712
X5.342Y-4.812
X5.342Y-4.912
X5.342Y-5.012
X5.342Y-5.112
X5.342Y-5.212
X5.342Y-5.312
M30
