%TF.GenerationSoftware,KiCad,Pcbnew,8.0.4*%
%TF.CreationDate,2025-01-13T09:01:13+07:00*%
%TF.ProjectId,BMS-switch-board,424d532d-7377-4697-9463-682d626f6172,rev?*%
%TF.SameCoordinates,Original*%
%TF.FileFunction,Legend,Bot*%
%TF.FilePolarity,Positive*%
%FSLAX46Y46*%
G04 Gerber Fmt 4.6, Leading zero omitted, Abs format (unit mm)*
G04 Created by KiCad (PCBNEW 8.0.4) date 2025-01-13 09:01:13*
%MOMM*%
%LPD*%
G01*
G04 APERTURE LIST*
%ADD10C,0.150000*%
%ADD11C,0.120000*%
G04 APERTURE END LIST*
D10*
X136020133Y-73629619D02*
X136020133Y-74343904D01*
X136020133Y-74343904D02*
X136067752Y-74486761D01*
X136067752Y-74486761D02*
X136162990Y-74582000D01*
X136162990Y-74582000D02*
X136305847Y-74629619D01*
X136305847Y-74629619D02*
X136401085Y-74629619D01*
X135591561Y-73724857D02*
X135543942Y-73677238D01*
X135543942Y-73677238D02*
X135448704Y-73629619D01*
X135448704Y-73629619D02*
X135210609Y-73629619D01*
X135210609Y-73629619D02*
X135115371Y-73677238D01*
X135115371Y-73677238D02*
X135067752Y-73724857D01*
X135067752Y-73724857D02*
X135020133Y-73820095D01*
X135020133Y-73820095D02*
X135020133Y-73915333D01*
X135020133Y-73915333D02*
X135067752Y-74058190D01*
X135067752Y-74058190D02*
X135639180Y-74629619D01*
X135639180Y-74629619D02*
X135020133Y-74629619D01*
X118240133Y-73629619D02*
X118240133Y-74343904D01*
X118240133Y-74343904D02*
X118287752Y-74486761D01*
X118287752Y-74486761D02*
X118382990Y-74582000D01*
X118382990Y-74582000D02*
X118525847Y-74629619D01*
X118525847Y-74629619D02*
X118621085Y-74629619D01*
X117240133Y-74629619D02*
X117811561Y-74629619D01*
X117525847Y-74629619D02*
X117525847Y-73629619D01*
X117525847Y-73629619D02*
X117621085Y-73772476D01*
X117621085Y-73772476D02*
X117716323Y-73867714D01*
X117716323Y-73867714D02*
X117811561Y-73915333D01*
D11*
%TO.C,J2*%
X135686800Y-75174800D02*
X137016800Y-75174800D01*
X137016800Y-75174800D02*
X137016800Y-76504800D01*
X137016800Y-95614800D02*
X137016800Y-77774800D01*
X134356800Y-77774800D02*
X137016800Y-77774800D01*
X134356800Y-95614800D02*
X137016800Y-95614800D01*
X134356800Y-95614800D02*
X134356800Y-77774800D01*
%TO.C,J1*%
X117906800Y-75174800D02*
X119236800Y-75174800D01*
X119236800Y-75174800D02*
X119236800Y-76504800D01*
X119236800Y-95614800D02*
X119236800Y-77774800D01*
X116576800Y-77774800D02*
X119236800Y-77774800D01*
X116576800Y-95614800D02*
X119236800Y-95614800D01*
X116576800Y-95614800D02*
X116576800Y-77774800D01*
%TO.C,J4*%
X135686800Y-98034800D02*
X137016800Y-98034800D01*
X137016800Y-98034800D02*
X137016800Y-99364800D01*
X137016800Y-136254800D02*
X137016800Y-100634800D01*
X134356800Y-100634800D02*
X137016800Y-100634800D01*
X134356800Y-136254800D02*
X137016800Y-136254800D01*
X134356800Y-136254800D02*
X134356800Y-100634800D01*
%TO.C,J3*%
X117906800Y-98034800D02*
X119236800Y-98034800D01*
X119236800Y-98034800D02*
X119236800Y-99364800D01*
X119236800Y-136254800D02*
X119236800Y-100634800D01*
X116576800Y-100634800D02*
X119236800Y-100634800D01*
X116576800Y-136254800D02*
X119236800Y-136254800D01*
X116576800Y-136254800D02*
X116576800Y-100634800D01*
%TD*%
M02*
