%TF.GenerationSoftware,KiCad,Pcbnew,8.0.4*%
%TF.CreationDate,2025-01-13T09:01:13+07:00*%
%TF.ProjectId,BMS-switch-board,424d532d-7377-4697-9463-682d626f6172,rev?*%
%TF.SameCoordinates,Original*%
%TF.FileFunction,Legend,Top*%
%TF.FilePolarity,Positive*%
%FSLAX46Y46*%
G04 Gerber Fmt 4.6, Leading zero omitted, Abs format (unit mm)*
G04 Created by KiCad (PCBNEW 8.0.4) date 2025-01-13 09:01:13*
%MOMM*%
%LPD*%
G01*
G04 APERTURE LIST*
%ADD10C,0.150000*%
%ADD11C,0.120000*%
G04 APERTURE END LIST*
D10*
X126222395Y-81399619D02*
X126222395Y-82209142D01*
X126222395Y-82209142D02*
X126270014Y-82304380D01*
X126270014Y-82304380D02*
X126317633Y-82352000D01*
X126317633Y-82352000D02*
X126412871Y-82399619D01*
X126412871Y-82399619D02*
X126603347Y-82399619D01*
X126603347Y-82399619D02*
X126698585Y-82352000D01*
X126698585Y-82352000D02*
X126746204Y-82304380D01*
X126746204Y-82304380D02*
X126793823Y-82209142D01*
X126793823Y-82209142D02*
X126793823Y-81399619D01*
X127793823Y-82399619D02*
X127222395Y-82399619D01*
X127508109Y-82399619D02*
X127508109Y-81399619D01*
X127508109Y-81399619D02*
X127412871Y-81542476D01*
X127412871Y-81542476D02*
X127317633Y-81637714D01*
X127317633Y-81637714D02*
X127222395Y-81685333D01*
X126034895Y-111812119D02*
X126034895Y-112621642D01*
X126034895Y-112621642D02*
X126082514Y-112716880D01*
X126082514Y-112716880D02*
X126130133Y-112764500D01*
X126130133Y-112764500D02*
X126225371Y-112812119D01*
X126225371Y-112812119D02*
X126415847Y-112812119D01*
X126415847Y-112812119D02*
X126511085Y-112764500D01*
X126511085Y-112764500D02*
X126558704Y-112716880D01*
X126558704Y-112716880D02*
X126606323Y-112621642D01*
X126606323Y-112621642D02*
X126606323Y-111812119D01*
X127034895Y-111907357D02*
X127082514Y-111859738D01*
X127082514Y-111859738D02*
X127177752Y-111812119D01*
X127177752Y-111812119D02*
X127415847Y-111812119D01*
X127415847Y-111812119D02*
X127511085Y-111859738D01*
X127511085Y-111859738D02*
X127558704Y-111907357D01*
X127558704Y-111907357D02*
X127606323Y-112002595D01*
X127606323Y-112002595D02*
X127606323Y-112097833D01*
X127606323Y-112097833D02*
X127558704Y-112240690D01*
X127558704Y-112240690D02*
X126987276Y-112812119D01*
X126987276Y-112812119D02*
X127606323Y-112812119D01*
D11*
%TO.C,U1*%
X126984300Y-82659800D02*
X124784300Y-82659800D01*
X126984300Y-82659800D02*
X129184300Y-82659800D01*
X126984300Y-88129800D02*
X124784300Y-88129800D01*
X126984300Y-88129800D02*
X129184300Y-88129800D01*
X123124300Y-83119800D02*
X122794300Y-83359800D01*
X122794300Y-82879800D01*
X123124300Y-83119800D01*
G36*
X123124300Y-83119800D02*
G01*
X122794300Y-83359800D01*
X122794300Y-82879800D01*
X123124300Y-83119800D01*
G37*
%TO.C,U2*%
X126796800Y-113197300D02*
X124596800Y-113197300D01*
X126796800Y-113197300D02*
X128996800Y-113197300D01*
X126796800Y-121217300D02*
X124596800Y-121217300D01*
X126796800Y-121217300D02*
X128996800Y-121217300D01*
X123896800Y-113297300D02*
X123656800Y-112967300D01*
X124136800Y-112967300D01*
X123896800Y-113297300D01*
G36*
X123896800Y-113297300D02*
G01*
X123656800Y-112967300D01*
X124136800Y-112967300D01*
X123896800Y-113297300D01*
G37*
%TD*%
M02*
